<?xml version="1.0" encoding="UTF-8"?>
<svg width="157px" height="19px" viewBox="0 0 157 19" version="1.1" xmlns="http://www.w3.org/2000/svg" xmlns:xlink="http://www.w3.org/1999/xlink">
    <title>形状结合 2</title>
    <g id="05.BTFS-Storage" stroke="none" stroke-width="1" fill="none" fill-rule="evenodd">
        <g id="My-Hosting" transform="translate(-26.000000, -49.000000)" fill-rule="nonzero">
            <g id="编组-8" transform="translate(26.000000, 49.000000)">
                <path d="M3.27026334,2.85992211 C3.39852222,2.78824077 3.5565419,2.78824077 3.68480079,2.86008539 L3.68480079,2.86008539 L5.00847981,3.60155454 C5.06360492,3.63249671 5.06360492,3.7095664 5.00839527,3.74042693 L5.00839527,3.74042693 L2.48506871,5.15103076 L2.56623452,5.1964235 L4.7183966,6.3994127 L8.60835242,8.57393712 L12.4983928,6.3994127 L14.7317207,5.15103076 L12.2121142,3.74254961 C12.1569046,3.71168908 12.1569046,3.63453775 12.2121142,3.60367722 L12.2121142,3.60367722 L13.5374842,2.86277957 C13.6656585,2.79117987 13.8235091,2.79117987 13.9516835,2.86277957 L13.9516835,2.86277957 L16.3884332,4.22488827 L16.8026324,4.4564239 C17.0588965,4.59970493 17.2167471,4.86446869 17.2167471,5.15103076 L17.2167471,5.15103076 L17.2167471,8.34101359 C17.2167471,8.48429462 17.1378641,8.61671732 17.0096898,8.68831702 L17.0096898,8.68831702 L15.8765813,9.32169267 L15.6843198,9.42921468 C15.6291101,9.46007521 15.5601192,9.42145873 15.5601192,9.35973766 L15.5601192,9.35973766 L15.5601192,6.5400812 L13.3267913,7.78854478 L9.43675093,9.9630692 L9.43675093,16.8088819 L11.9599929,15.3983597 C12.0152026,15.3674992 12.0841935,15.4061157 12.0841935,15.4678367 L12.0841935,15.4678367 L12.0841935,16.9495504 C12.0841935,17.0928315 12.0053105,17.2252542 11.8771362,17.2968539 L11.8771362,17.2968539 L9.43675093,18.6610036 L9.02255168,18.8925392 C8.76628755,19.0358203 8.45050184,19.0358203 8.19423771,18.8925392 L8.19423771,18.8925392 L7.78003846,18.6610036 L5.33965321,17.2968539 C5.21147888,17.2252542 5.13251131,17.0928315 5.13251131,16.9495504 L5.13251131,16.9495504 L5.13251131,15.4678367 C5.13251131,15.4061157 5.20158679,15.3674992 5.25679645,15.3983597 L5.25679645,15.3983597 L7.78003846,16.8088819 L7.78003846,9.9630692 L3.88999809,7.78854478 L1.73792901,6.58555558 L1.65668711,6.5400812 L1.65668711,9.35630872 C1.65668711,9.41802978 1.58766236,9.45664626 1.53243579,9.42578573 L1.53243579,9.42578573 L1.34630399,9.32169267 L0.207091173,8.68488807 C0.0789422015,8.61328838 0,8.48086568 0,8.33758464 L0,8.33758464 L0,5.15103076 C0,4.86446869 0.157884403,4.59970493 0.414173891,4.4564239 L0.414173891,4.4564239 L0.828347783,4.22488827 Z M17.0925465,10.4941479 C17.1477562,10.4632874 17.2167471,10.5019039 17.2167471,10.5636249 L17.2167471,10.5636249 L17.2167471,13.8489652 C17.2167471,14.1355272 17.0588965,14.400291 16.8026324,14.543572 L16.8026324,14.543572 L13.8651911,16.1855482 C13.8099815,16.2164087 13.740906,16.1778739 13.740906,16.1160712 L13.740906,16.1160712 L13.740906,14.6343575 C13.740906,14.4911581 13.8198736,14.3587354 13.9479634,14.2871357 L13.9479634,14.2871357 L15.5601192,13.3859756 L15.5601192,11.582349 C15.5601192,11.439068 15.6390022,11.3066453 15.7671765,11.2350456 L15.7671765,11.2350456 L16.7049798,10.7108248 Z M0.124251322,10.490719 L0.517964666,10.7108248 L1.44960439,11.2316166 C1.57774491,11.3032163 1.65668711,11.435639 1.65668711,11.57892 L1.65668711,13.3859756 L3.26874148,14.2871357 C3.39691582,14.3587354 3.47588338,14.4910765 3.47588338,14.6343575 L3.47588338,16.1160712 C3.47588338,16.1778739 3.4068079,16.2164087 3.35159824,16.1855482 L0.414173891,14.543572 C0.157884403,14.400291 0,14.1355272 0,13.8489652 L0,10.560196 C0,10.4984749 0.0690332093,10.4598584 0.124251322,10.490719 Z M53.8210035,4.07043805 C55.5837095,4.07043805 56.9505564,4.89854167 57.7252082,6.28624073 L57.8271535,6.47891576 L55.9682999,7.50673746 C55.5676849,6.69368448 54.9587501,6.12608145 53.8210035,6.12608145 C52.8915767,6.12608145 52.3467403,6.58630012 52.3467403,7.19992502 C52.3467403,7.83089148 52.7425994,8.18114486 54.2635654,8.640022 L54.4780121,8.70330601 L54.8469689,8.81535438 C56.5085633,9.32625202 58.1476455,9.9591211 58.1476455,12.0015398 C58.1476455,14.0111613 56.4650625,15.2384111 54.0773971,15.2384111 C51.8740146,15.2384111 50.3965986,14.2597657 49.7448699,12.7661585 L49.6706321,12.5844835 L51.5615349,11.5259805 C51.9621499,12.523121 52.7473553,13.1674271 54.1414955,13.1674271 C55.4715373,13.1674271 55.9362507,12.6305053 55.9362507,12.0322211 C55.9362507,11.2345087 55.1830945,10.9276963 53.5165361,10.4674776 C51.8019039,9.99191829 50.1353455,9.30159028 50.1353455,7.26128751 C50.1353455,5.23632535 51.8980515,4.07043805 53.8210035,4.07043805 Z M28.0053729,4.28520677 C29.8962757,4.28520677 31.4186127,5.51245656 31.4186127,7.30730937 C31.4186127,8.22774672 31.0179977,8.94875597 30.3609891,9.45499651 C31.2583667,9.94589642 31.8352523,10.7896307 31.8352523,11.9094961 C31.8352523,13.6868923 30.3862169,14.9351557 28.5410534,15.0191294 L28.3418895,15.0236424 L23.5825833,15.0236424 L23.5825833,4.28520677 L28.0053729,4.28520677 Z M40.6968561,4.28520677 L40.6968561,6.31016892 L37.6682067,6.31016892 L37.6682067,15.0236424 L35.4568119,15.0236424 L35.4568119,6.31016892 L32.4441871,6.31016892 L32.4441871,4.28520677 L40.6968561,4.28520677 Z M48.6290331,4.28520677 L48.6290331,6.31016892 L44.1421451,6.31016892 L44.1421451,8.85671223 L48.5008363,8.85671223 L48.5008363,10.8816744 L44.1421451,10.8816744 L44.1421451,15.0236424 L41.9307503,15.0236424 L41.9307503,4.28520677 L48.6290331,4.28520677 Z M28.3418895,10.5134994 L25.7939781,10.5134994 L25.7939781,13.0447021 L28.3418895,13.0447021 C29.0950457,13.0447021 29.6398821,12.5077804 29.6398821,11.7714305 C29.6398821,11.0504212 29.0950457,10.5134994 28.3418895,10.5134994 Z M28.0053729,6.26414705 L25.7939781,6.26414705 L25.7939781,8.6266029 L28.0053729,8.6266029 C28.6944307,8.6266029 29.2072179,8.12036236 29.2072179,7.44537497 C29.2072179,6.77038759 28.7104553,6.26414705 28.0053729,6.26414705 Z M8.19423771,0.10744853 C8.45050184,-0.0358161766 8.76628755,-0.0358161766 9.02255168,0.10744853 L9.02255168,0.10744853 L11.9636285,1.75149023 C12.0188381,1.78233443 12.0188381,1.8595674 11.9636285,1.89042793 L11.9636285,1.89042793 L11.0953235,2.37578733 L10.6382585,2.63124395 C10.5101687,2.70292528 10.3522336,2.70292528 10.2241438,2.63124395 L10.2241438,2.63124395 L8.60835242,1.72808358 L6.99805664,2.62830485 C6.86988231,2.69990454 6.71203172,2.69990454 6.58385739,2.62830485 L6.58385739,2.62830485 L6.13220349,2.37578733 L5.25848741,1.88740719 C5.20327775,1.85654666 5.20327775,1.77939533 5.25848741,1.74849398 L5.25848741,1.74849398 Z" id="形状结合" fill="#FFFFFF"></path>
                <path d="M72.4195955,15.3958178 C73.1101737,15.3958178 73.749598,15.2299997 74.3378683,14.8983633 C74.9261386,14.5667269 75.3929184,14.1184037 75.7382075,13.5533936 C76.0834966,12.9883835 76.2561411,12.3681007 76.2561411,11.6925451 C76.2561411,11.0169896 76.0834966,10.3967067 75.7382075,9.83169662 C75.3929184,9.26668652 74.9261386,8.81836329 74.3378683,8.48672693 C73.749598,8.15509056 73.1101737,7.98927238 72.4195955,7.98927238 L68.3912225,7.98927238 C67.9180485,7.98927238 67.5120141,7.82959561 67.1731192,7.51024208 C66.8342244,7.19088854 66.6647769,6.80397945 66.6647769,6.3495148 C66.6647769,5.89505016 66.8342244,5.50507036 67.1731192,5.17957541 C67.5120141,4.85408046 67.9180485,4.69133299 68.3912225,4.69133299 L75.488832,4.69133299 L75.488832,2.71993905 L67.3745379,2.71993905 C66.6839597,2.71993905 66.0509296,2.88268652 65.4754478,3.20818147 C64.8999659,3.53367642 64.4427776,3.97278753 64.1038827,4.5255148 C63.7649878,5.07824208 63.5955404,5.68624208 63.5955404,6.3495148 C63.5955404,7.0005047 63.7649878,7.605434 64.1038827,8.16430268 C64.4427776,8.72317137 64.8999659,9.16535319 65.4754478,9.49084814 C66.0509296,9.81634309 66.6839597,9.97909056 67.3745379,9.97909056 L71.3837281,9.97909056 C71.8824791,9.97909056 72.3076962,10.1449087 72.6593796,10.4765451 C73.0110629,10.8081815 73.1869046,11.2135148 73.1869046,11.6925451 C73.1869046,12.1715754 73.0110629,12.5769087 72.6593796,12.9085451 C72.3076962,13.2401815 71.8824791,13.4059997 71.3837281,13.4059997 L64.1326568,13.4059997 L64.1326568,15.3958178 L72.4195955,15.3958178 Z M84.0251461,15.3958178 L84.0251461,13.4244239 L82.624807,13.4244239 C82.3050948,13.4244239 82.0301424,13.3138784 81.7999497,13.0927875 C81.5697569,12.8716966 81.4546605,12.6076158 81.4546605,12.3005451 L81.4546605,7.58393905 L84.0251461,7.58393905 L84.0251461,5.61254511 L81.4546605,5.61254511 L81.4546605,2.73836329 L78.3662413,2.73836329 L78.3662413,5.61254511 L77.0809985,5.61254511 L77.0809985,7.58393905 L78.3662413,7.58393905 L78.3662413,12.521636 C78.4046067,13.0497976 78.5740542,13.5318986 78.8745836,13.967939 C79.175113,14.4039795 79.5651618,14.7509693 80.04473,15.0089087 C80.5242982,15.2668481 81.0390348,15.3958178 81.5889396,15.3958178 L84.0251461,15.3958178 Z M92.5353302,15.3958178 C93.085235,15.3958178 93.5903802,15.2668481 94.0507657,15.0089087 C94.5111512,14.7509693 94.875623,14.4009087 95.1441812,13.9587269 C95.4127394,13.5165451 95.5470185,13.0375148 95.5470185,12.521636 L95.5470185,8.48672693 C95.5470185,7.97084814 95.4127394,7.49181783 95.1441812,7.04963602 C94.875623,6.6074542 94.5111512,6.25739359 94.0507657,5.9994542 C93.5903802,5.7415148 93.085235,5.61254511 92.5353302,5.61254511 L88.0849372,5.61254511 C87.5350323,5.61254511 87.0330842,5.7415148 86.579093,5.9994542 C86.1251018,6.25739359 85.763827,6.6074542 85.4952688,7.04963602 C85.2267106,7.49181783 85.0924315,7.97084814 85.0924315,8.48672693 L85.0924315,12.521636 C85.0924315,13.0375148 85.2267106,13.5165451 85.4952688,13.9587269 C85.763827,14.4009087 86.1251018,14.7509693 86.579093,15.0089087 C87.0330842,15.2668481 87.5350323,15.3958178 88.0849372,15.3958178 L92.5353302,15.3958178 Z M89.7154691,13.4244239 C89.2806606,13.4244239 88.9129916,13.2801007 88.6124622,12.9914542 C88.3119328,12.7028077 88.1616681,12.3496764 88.1616681,11.9320603 L88.1616681,9.07630268 C88.1616681,8.65868652 88.3119328,8.30555521 88.6124622,8.01690874 C88.9129916,7.72826228 89.2806606,7.58393905 89.7154691,7.58393905 L90.9047983,7.58393905 C91.3396068,7.58393905 91.7072757,7.72826228 92.0078051,8.01690874 C92.3083345,8.30555521 92.4585993,8.65868652 92.4585993,9.07630268 L92.4585993,11.9320603 C92.4585993,12.3496764 92.3083345,12.7028077 92.0078051,12.9914542 C91.7072757,13.2801007 91.3396068,13.4244239 90.9047983,13.4244239 L89.7154691,13.4244239 Z M100.131691,15.3958178 L100.131691,9.07630268 C100.131691,8.65868652 100.281955,8.30555521 100.582485,8.01690874 C100.883014,7.72826228 101.244289,7.58393905 101.666309,7.58393905 L104.006602,7.58393905 L104.006602,5.61254511 L100.035777,5.61254511 C99.4986606,5.61254511 98.9999096,5.7415148 98.5395242,5.9994542 C98.0791387,6.25739359 97.7146668,6.6074542 97.4461086,7.04963602 C97.1775504,7.49181783 97.0432713,7.97084814 97.0432713,8.48672693 L97.0432713,15.3958178 L100.131691,15.3958178 Z M110.34385,15.3958178 C111.315774,15.3958178 112.262122,15.2238582 113.182893,14.879939 L113.182893,15.3958178 L116.25213,15.3958178 L116.25213,5.61254511 L113.182893,5.61254511 L113.182893,6.1284239 C112.249334,5.7845047 111.296592,5.61254511 110.324667,5.61254511 L107.217065,5.61254511 C106.769468,5.61254511 106.353842,5.72001985 105.970187,5.93496935 C105.586533,6.14991884 105.282806,6.44163602 105.059008,6.81012086 C104.835209,7.17860571 104.72331,7.57779763 104.72331,8.00769662 L104.72331,13.0006663 C104.72331,13.4305653 104.835209,13.8297572 105.059008,14.1982421 C105.282806,14.5667269 105.586533,14.8584441 105.970187,15.0733936 C106.353842,15.2883431 106.769468,15.3958178 107.217065,15.3958178 L110.34385,15.3958178 Z M109.346348,13.4244239 C108.911539,13.4244239 108.54387,13.2801007 108.243341,12.9914542 C107.942811,12.7028077 107.792547,12.3496764 107.792547,11.9320603 L107.792547,9.07630268 C107.792547,8.65868652 107.942811,8.30555521 108.243341,8.01690874 C108.54387,7.72826228 108.911539,7.58393905 109.346348,7.58393905 L110.324667,7.58393905 C111.30938,7.58393905 112.262122,7.75589864 113.182893,8.09981783 L113.182893,12.9085451 C112.262122,13.2524643 111.30938,13.4244239 110.324667,13.4244239 L109.346348,13.4244239 Z M126.073687,18.3068481 C126.661957,18.3068481 127.202271,18.1655956 127.694627,17.8830906 C128.186984,17.6005855 128.577033,17.2228885 128.864774,16.7499997 C129.152515,16.2771108 129.296385,15.7581613 129.296385,15.1931512 L129.296385,5.61254511 L126.227149,5.61254511 L126.227149,6.29424208 C124.884358,5.83977743 123.669452,5.61254511 122.58243,5.61254511 L120.242137,5.61254511 C119.79454,5.61254511 119.378915,5.72001985 118.99526,5.93496935 C118.611605,6.14991884 118.307879,6.44163602 118.08408,6.81012086 C117.860282,7.17860571 117.748383,7.57779763 117.748383,8.00769662 L117.748383,11.9504845 C117.748383,12.3803835 117.860282,12.7826461 118.08408,13.1572724 C118.307879,13.5318986 118.611605,13.8266865 118.99526,14.041636 C119.378915,14.2565855 119.79454,14.3640603 120.242137,14.3640603 L122.601613,14.3640603 C123.701423,14.3640603 124.909935,14.1306865 126.227149,13.663939 L126.227149,15.1931512 C126.227149,15.5002219 126.112052,15.7643027 125.88186,15.9853936 C125.651667,16.2064845 125.37032,16.31703 125.03782,16.31703 L118.189585,16.31703 L118.189585,18.3068481 L126.073687,18.3068481 Z M122.37142,12.3742421 C121.9494,12.3742421 121.584928,12.2299188 121.278005,11.9412724 C120.971081,11.6526259 120.817619,11.2994946 120.817619,10.8818784 L120.817619,9.07630268 C120.817619,8.65868652 120.971081,8.30555521 121.278005,8.01690874 C121.584928,7.72826228 121.9494,7.58393905 122.37142,7.58393905 L123.349739,7.58393905 C123.669452,7.58393905 124.628588,7.86030268 126.227149,8.41302996 L126.227149,11.5635754 C124.666953,12.1040199 123.707817,12.3742421 123.349739,12.3742421 L122.37142,12.3742421 Z M141.017032,15.3958178 L141.017032,13.4244239 L135.032021,13.4244239 C134.712309,13.4244239 134.437356,13.3138784 134.207164,13.0927875 C133.976971,12.8716966 133.861875,12.6076158 133.861875,12.3005451 L133.861875,11.6372724 L139.233039,11.6372724 C139.795732,11.6372724 140.272103,11.4468885 140.662152,11.0661209 C141.052201,10.6853532 141.247225,10.2308885 141.247225,9.70272693 L141.247225,7.54709056 C141.247225,7.00664612 141.052201,6.54911076 140.662152,6.1744845 C140.272103,5.79985824 139.795732,5.61254511 139.233039,5.61254511 L134.015336,5.61254511 C133.427066,5.61254511 132.886753,5.75072693 132.394396,6.02709056 C131.902039,6.3034542 131.51199,6.67808046 131.224249,7.15096935 C130.936508,7.62385824 130.792638,8.14280773 130.792638,8.70781783 L130.792638,12.3005451 C130.792638,12.8655552 130.936508,13.3845047 131.224249,13.8573936 C131.51199,14.3302825 131.902039,14.7049087 132.394396,14.9812724 C132.886753,15.257636 133.427066,15.3958178 134.015336,15.3958178 L141.017032,15.3958178 Z M133.861875,9.66587844 L133.861875,8.70781783 C133.861875,8.40074713 133.976971,8.13666632 134.207164,7.91557541 C134.437356,7.6944845 134.712309,7.58393905 135.032021,7.58393905 L137.353131,7.58393905 C137.570535,7.58393905 137.759166,7.66070672 137.919022,7.81424208 C138.078878,7.96777743 138.158806,8.14894915 138.158806,8.35775723 L138.158806,8.89206026 C138.158806,9.10086834 138.078878,9.28204006 137.919022,9.43557541 C137.759166,9.58911076 137.570535,9.66587844 137.353131,9.66587844 L133.861875,9.66587844 Z" id="Storage" fill="#FFFFFF"></path>
                <path d="M153.20182,15.3958178 C153.892398,15.3958178 154.528625,15.2330704 155.110501,14.9075754 C155.692377,14.5820805 156.152763,14.1398986 156.491658,13.58103 C156.830553,13.0221613 157,12.4110906 157,11.7478178 C157,11.1828077 156.878509,10.6546461 156.635528,10.163333 C156.392547,9.67201985 156.053652,9.25440369 155.618844,8.9104845 C155.951344,8.57884814 156.210311,8.19808046 156.395744,7.76818147 C156.581177,7.33828248 156.673894,6.88381783 156.673894,6.40478753 C156.673894,5.7415148 156.501249,5.1304441 156.15596,4.57157541 C155.810671,4.01270672 155.347088,3.5674542 154.765212,3.23581783 C154.183336,2.90418147 153.547109,2.73836329 152.856531,2.73836329 L143.99411,2.73836329 L143.99411,4.70975723 L151.820663,4.70975723 C152.306626,4.70975723 152.722252,4.87557541 153.067541,5.20721177 C153.41283,5.53884814 153.585474,5.93804006 153.585474,6.40478753 C153.585474,6.87153501 153.41283,7.26765622 153.067541,7.59315117 C152.722252,7.91864612 152.306626,8.08139359 151.820663,8.08139359 L144.83815,8.08139359 L144.83815,10.0527875 L152.165952,10.0527875 C152.651915,10.0527875 153.067541,10.2186057 153.41283,10.5502421 C153.758119,10.8818784 153.930763,11.2810704 153.930763,11.7478178 C153.930763,12.2145653 153.758119,12.6106865 153.41283,12.9361815 C153.067541,13.2616764 152.651915,13.4244239 152.165952,13.4244239 L142.815413,13.4244239 L142.815413,15.3958178 L153.20182,15.3958178 Z" id="3" fill="#FEE975"></path>
            </g>
        </g>
    </g>
</svg>