<svg width="16" height="18" viewBox="0 0 16 18" fill="none" xmlns="http://www.w3.org/2000/svg">
<path fill-rule="evenodd" clip-rule="evenodd" d="M8.76983 13.5588V9.4387L12.385 7.37862L14.4605 6.19587V8.86712C14.4605 8.92559 14.5246 8.96218 14.5759 8.93294L14.7545 8.83108L15.8076 8.23104C15.9267 8.16321 16 8.03775 16 7.90201V5.31855V4.87992C16 4.60844 15.8533 4.35761 15.6152 4.22188L15.2302 4.00253L12.9657 2.71211C12.8466 2.64428 12.6999 2.64428 12.5808 2.71211L11.3491 3.41401C11.2977 3.44325 11.2977 3.51634 11.3491 3.54557L13.6906 4.87992L11.6151 6.0626L7.99998 8.12268L4.38494 6.0626L2.38487 4.92293L2.30944 4.87992L4.65444 3.54356C4.70575 3.51433 4.70575 3.44131 4.65452 3.412L3.42439 2.70955C3.30519 2.64149 3.15834 2.64149 3.03915 2.7094L0.769807 4.00253L0.384903 4.22188C0.146726 4.35761 0 4.60844 0 4.87992V5.31855V7.89876C0 8.0345 0.0733632 8.15996 0.192456 8.22779L1.25116 8.83108L1.42413 8.92969C1.47546 8.95893 1.53961 8.92234 1.53961 8.86387V6.19587L1.61511 6.23895L3.61508 7.37862L7.23021 9.4387V13.5588V15.9242L4.88529 14.5879C4.83398 14.5587 4.76978 14.5953 4.76978 14.6537V15.0378V16.0575C4.76978 16.1932 4.84317 16.3187 4.96229 16.3865L7.23021 17.6788L7.61513 17.8982C7.85329 18.0339 8.14675 18.0339 8.38491 17.8982L8.76983 17.6788L11.0378 16.3865C11.1569 16.3187 11.2302 16.1932 11.2302 16.0575V15.0378V14.6537C11.2302 14.5953 11.1661 14.5587 11.1148 14.5879L8.76983 15.9242V13.5588ZM12.9622 13.5352C12.8432 13.603 12.7698 13.7285 12.7698 13.8641V15.0378V15.2679C12.7698 15.3264 12.834 15.3629 12.8853 15.3337L15.6152 13.7781C15.8533 13.6424 16 13.3916 16 13.1201V10.0076C16 9.94917 15.9359 9.91259 15.8846 9.94182L15.5244 10.1471L14.6529 10.6437C14.5338 10.7116 14.4605 10.837 14.4605 10.9728V12.6815L12.9622 13.5352ZM3.23023 15.2679C3.23023 15.3264 3.16604 15.3629 3.11473 15.3337L0.384903 13.7781C0.146726 13.6424 0 13.3916 0 13.1201V10.0044C0 9.94592 0.0641545 9.90934 0.11547 9.93858L0.481359 10.1471L1.34716 10.6405C1.46624 10.7083 1.53961 10.8338 1.53961 10.9695V12.6815L3.03773 13.5352C3.15685 13.603 3.23023 13.7284 3.23023 13.8641V15.0378V15.2679ZM4.88686 1.65647C4.83555 1.68574 4.83555 1.75883 4.88686 1.78807L5.69883 2.25075L6.11856 2.48997C6.23768 2.5578 6.38437 2.5578 6.50349 2.48997L7.99998 1.63713L9.50158 2.49276C9.62062 2.56067 9.76739 2.56067 9.88643 2.49276L10.3112 2.25075L11.1181 1.79093C11.1694 1.7617 11.1694 1.68853 11.1181 1.65931L8.38491 0.101793C8.14675 -0.0339311 7.85329 -0.0339311 7.61513 0.101793L4.88686 1.65647Z" fill="white"/>
</svg>
